<?xml version="1.0" standalone="no"?><svg xmlns:xlink="http://www.w3.org/1999/xlink" xmlns="http://www.w3.org/2000/svg" viewBox="0 0 2100 1145.4632686398372" preserveAspectRatio="xMaxYMax slice"><g transform="scale(2.9985949440833437)"><rect x="0" y="0" width="700.3333333333333" height="382" fill="#ffffff"/><rect x="0" y="0" width="63.67" height="63.67" fill="#183FE1"/><polygon points="0,0 63.67,0 63.67,63.67" fill="#FF3565"/><rect x="63.67" y="0" width="63.67" height="63.67" fill="#183FE1"/><polygon points="63.67,0 127.34,0 127.34,63.67" fill="#20dfdf"/><rect x="127.33" y="0" width="63.67" height="63.67" fill="#20dfdf"/><rect x="127.33" y="0" width="63.67" height="63.67" fill="#183FE1"/><rect x="191" y="0" width="63.67" height="63.67" fill="#20dfdf"/><polygon points="254.67000000000002,0 254.67000000000002,63.67 191,63.67" fill="#183FE1"/><rect x="254.66666666666666" y="0" width="63.666666666666664" height="63.666666666666664" fill="#ffffff"/><rect x="254.67" y="0" width="31.83" height="31.83" fill="#20dfdf"/><path d="M 254.67 0 A 31.83 31.83 0 0 1 286.5 31.83 L 254.67 31.83" fill="#183FE1"/><rect x="286.5" y="0" width="31.83" height="31.83" fill="#183FE1"/><path d="M 286.5 31.83 A 31.83 31.83 0 0 1  318.33 0 L 318.33 31.83" fill="#183FE1"/><rect x="254.67" y="31.83" width="31.83" height="31.83" fill="#FF3565"/><path d="M 254.67 63.66 A 31.83 31.83 0 0 0 286.5 31.83 L 254.67 31.83" fill="#FF3565"/><rect x="286.5" y="31.83" width="31.83" height="31.83" fill="#20dfdf"/><path d="M 286.5 31.83 A 31.83 31.83 0 0 0 318.33 63.66 L 318.33 31.83" fill="#FF3565"/><rect x="318.33" y="0" width="63.67" height="63.67" fill="#FF3565"/><rect x="318.33" y="0" width="63.67" height="63.67" fill="#FF3565"/><rect x="382" y="0" width="63.67" height="63.67" fill="#FF3565"/><path d="M 382 63.67 A 63.67 63.67 0 0 1  445.67 0 L 382 63.67 A 63.67 63.67 0 0 0 445.67 0" fill="#FF3565"/><rect x="445.66666666666663" y="0" width="63.666666666666664" height="63.666666666666664" fill="#ffffff"/><rect x="445.67" y="0" width="31.83" height="31.83" fill="#183FE1"/><polygon points="477.5,0 477.5,31.83 445.67,31.83" fill="#FF3565"/><rect x="477.5" y="0" width="31.83" height="31.83" fill="#183FE1"/><polygon points="477.5,0 509.33,31.83 477.5,31.83" fill="#20dfdf"/><rect x="445.67" y="31.83" width="31.83" height="31.83" fill="#183FE1"/><polygon points="445.67,31.83 477.5,31.83 445.67,63.66" fill="#183FE1"/><rect x="477.5" y="31.83" width="31.83" height="31.83" fill="#FF3565"/><polygon points="477.5,31.83 509.33,31.83 509.33,63.66" fill="#FF3565"/><rect x="509.3333333333333" y="0" width="63.666666666666664" height="63.666666666666664" fill="#ffffff"/><rect x="509.33" y="0" width="31.83" height="31.83" fill="#FF3565"/><path d="M 509.33 31.83 A 31.83 31.83 0 0 1  541.16 0 L 541.16 31.83" fill="#FF3565"/><rect x="541.17" y="0" width="31.83" height="31.83" fill="#20dfdf"/><path d="M 541.17 0 A 31.83 31.83 0 0 1 573 31.83 L 541.17 31.83" fill="#FF3565"/><rect x="509.33" y="31.83" width="31.83" height="31.83" fill="#183FE1"/><path d="M 509.33 31.83 A 31.83 31.83 0 0 0 541.16 63.66 L 541.16 31.83" fill="#183FE1"/><rect x="541.17" y="31.83" width="31.83" height="31.83" fill="#FF3565"/><path d="M 541.17 63.66 A 31.83 31.83 0 0 0 573 31.83 L 541.17 31.83" fill="#20dfdf"/><rect x="573" y="0" width="63.666666666666664" height="63.666666666666664" fill="#ffffff"/><rect x="573" y="0" width="31.83" height="31.83" fill="#FF3565"/><polygon points="604.83,0 604.83,31.83 573,31.83" fill="#20dfdf"/><rect x="604.83" y="0" width="31.83" height="31.83" fill="#20dfdf"/><polygon points="604.83,0 636.6600000000001,31.83 604.83,31.83" fill="#FF3565"/><rect x="573" y="31.83" width="31.83" height="31.83" fill="#FF3565"/><polygon points="573,31.83 604.83,31.83 604.83,63.66" fill="#20dfdf"/><rect x="604.83" y="31.83" width="31.83" height="31.83" fill="#183FE1"/><polygon points="604.83,31.83 636.6600000000001,31.83 604.83,63.66" fill="#20dfdf"/><rect x="636.6666666666666" y="0" width="63.666666666666664" height="63.666666666666664" fill="#ffffff"/><rect x="636.67" y="0" width="31.83" height="31.83" fill="#FF3565"/><polygon points="668.5,0 668.5,31.83 636.67,31.83" fill="#FF3565"/><rect x="668.5" y="0" width="31.83" height="31.83" fill="#183FE1"/><polygon points="668.5,0 700.33,31.83 668.5,31.83" fill="#183FE1"/><rect x="636.67" y="31.83" width="31.83" height="31.83" fill="#183FE1"/><polygon points="636.67,31.83 668.5,31.83 636.67,63.66" fill="#183FE1"/><rect x="668.5" y="31.83" width="31.83" height="31.83" fill="#183FE1"/><polygon points="668.5,31.83 700.33,31.83 700.33,63.66" fill="#20dfdf"/><rect x="0" y="63.666666666666664" width="63.666666666666664" height="63.666666666666664" fill="#ffffff"/><rect x="0" y="63.67" width="31.83" height="31.83" fill="#20dfdf"/><circle cx="15.915" cy="79.58500000000001" r="15.915" fill="#FF3565"/><rect x="31.83" y="63.67" width="31.83" height="31.83" fill="#20dfdf"/><rect x="31.83" y="63.67" width="31.83" height="31.83" fill="#183FE1"/><rect x="0" y="95.5" width="31.83" height="31.83" fill="#20dfdf"/><circle cx="15.915" cy="111.41499999999999" r="15.915" fill="#183FE1"/><rect x="31.83" y="95.5" width="31.83" height="31.83" fill="#183FE1"/><rect x="31.83" y="95.5" width="31.83" height="31.83" fill="#FF3565"/><rect x="63.67" y="63.67" width="63.67" height="63.67" fill="#20dfdf"/><polygon points="63.67,63.67 127.34,63.67 127.34,127.34" fill="#183FE1"/><rect x="127.33" y="63.67" width="63.67" height="63.67" fill="#FF3565"/><path d="M 127.33 127.34 A 63.67 63.67 0 0 1  191 63.67 L 127.33 127.34 A 63.67 63.67 0 0 0 191 63.67" fill="#FF3565"/><rect x="191" y="63.666666666666664" width="63.666666666666664" height="63.666666666666664" fill="#ffffff"/><rect x="191" y="63.67" width="31.83" height="31.83" fill="#FF3565"/><path d="M 191 95.5 A 31.83 31.83 0 0 0 222.82999999999998 63.67 L 191 63.67" fill="#FF3565"/><rect x="222.83" y="63.67" width="31.83" height="31.83" fill="#183FE1"/><path d="M 222.83 63.67 A 31.83 31.83 0 0 0 254.66000000000003 95.5 L 254.66000000000003 63.67" fill="#183FE1"/><rect x="191" y="95.5" width="31.83" height="31.83" fill="#20dfdf"/><path d="M 191 95.5 A 31.83 31.83 0 0 1 222.82999999999998 127.33 L 191 127.33" fill="#20dfdf"/><rect x="222.83" y="95.5" width="31.83" height="31.83" fill="#183FE1"/><path d="M 222.83 127.33 A 31.83 31.83 0 0 1  254.66000000000003 95.5 L 254.66000000000003 127.33" fill="#183FE1"/><rect x="254.66666666666666" y="63.666666666666664" width="63.666666666666664" height="63.666666666666664" fill="#ffffff"/><rect x="254.67" y="63.67" width="31.83" height="31.83" fill="#FF3565"/><path d="M 254.67 63.67 A 31.83 31.83 0 0 1 286.5 95.5 L 254.67 95.5" fill="#20dfdf"/><rect x="286.5" y="63.67" width="31.83" height="31.83" fill="#FF3565"/><path d="M 286.5 95.5 A 31.83 31.83 0 0 1  318.33 63.67 L 318.33 95.5" fill="#FF3565"/><rect x="254.67" y="95.5" width="31.83" height="31.83" fill="#20dfdf"/><path d="M 254.67 127.33 A 31.83 31.83 0 0 0 286.5 95.5 L 254.67 95.5" fill="#183FE1"/><rect x="286.5" y="95.5" width="31.83" height="31.83" fill="#183FE1"/><path d="M 286.5 95.5 A 31.83 31.83 0 0 0 318.33 127.33 L 318.33 95.5" fill="#FF3565"/><rect x="318.33" y="63.67" width="63.67" height="63.67" fill="#FF3565"/><path d="M 318.33 127.34 A 63.67 63.67 0 0 0 382 63.67 L 318.33 63.67" fill="#20dfdf"/><rect x="382" y="63.666666666666664" width="63.666666666666664" height="63.666666666666664" fill="#ffffff"/><rect x="382" y="63.67" width="31.83" height="31.83" fill="#FF3565"/><polygon points="413.83,63.67 413.83,95.5 382,95.5" fill="#183FE1"/><rect x="413.83" y="63.67" width="31.83" height="31.83" fill="#183FE1"/><polygon points="413.83,63.67 445.65999999999997,63.67 413.83,95.5" fill="#20dfdf"/><rect x="382" y="95.5" width="31.83" height="31.83" fill="#20dfdf"/><polygon points="382,95.5 413.83,95.5 413.83,127.33" fill="#183FE1"/><rect x="413.83" y="95.5" width="31.83" height="31.83" fill="#20dfdf"/><polygon points="413.83,95.5 445.65999999999997,127.33 413.83,127.33" fill="#183FE1"/><rect x="445.66666666666663" y="63.666666666666664" width="63.666666666666664" height="63.666666666666664" fill="#ffffff"/><rect x="445.67" y="63.67" width="31.83" height="31.83" fill="#FF3565"/><polygon points="477.5,63.67 477.5,95.5 445.67,95.5" fill="#20dfdf"/><rect x="477.5" y="63.67" width="31.83" height="31.83" fill="#20dfdf"/><polygon points="477.5,63.67 509.33,63.67 477.5,95.5" fill="#FF3565"/><rect x="445.67" y="95.5" width="31.83" height="31.83" fill="#183FE1"/><polygon points="445.67,95.5 477.5,95.5 477.5,127.33" fill="#FF3565"/><rect x="477.5" y="95.5" width="31.83" height="31.83" fill="#FF3565"/><polygon points="477.5,95.5 509.33,127.33 477.5,127.33" fill="#183FE1"/><rect x="509.33" y="63.67" width="63.67" height="63.67" fill="#FF3565"/><polygon points="573,63.67 573,127.34 509.33,127.34" fill="#20dfdf"/><rect x="573" y="63.666666666666664" width="63.666666666666664" height="63.666666666666664" fill="#ffffff"/><rect x="573" y="63.67" width="31.83" height="31.83" fill="#FF3565"/><circle cx="588.915" cy="79.58500000000001" r="15.915" fill="#FF3565"/><rect x="604.83" y="63.67" width="31.83" height="31.83" fill="#FF3565"/><rect x="604.83" y="63.67" width="31.83" height="31.83" fill="#20dfdf"/><rect x="573" y="95.5" width="31.83" height="31.83" fill="#FF3565"/><circle cx="588.915" cy="111.41499999999999" r="15.915" fill="#20dfdf"/><rect x="604.83" y="95.5" width="31.83" height="31.83" fill="#20dfdf"/><rect x="604.83" y="95.5" width="31.83" height="31.83" fill="#FF3565"/><rect x="636.67" y="63.67" width="63.67" height="63.67" fill="#20dfdf"/><path d="M 636.67 127.34 A 63.67 63.67 0 0 1  700.3399999999999 63.67 L 700.3399999999999 127.34" fill="#183FE1"/><rect x="0" y="127.33" width="63.67" height="63.67" fill="#20dfdf"/><polygon points="63.67,127.33 63.67,191 0,191" fill="#FF3565"/><rect x="63.67" y="127.33" width="63.67" height="63.67" fill="#183FE1"/><polygon points="63.67,127.33 127.34,127.33 127.34,191" fill="#183FE1"/><rect x="127.33333333333333" y="127.33333333333333" width="63.666666666666664" height="63.666666666666664" fill="#ffffff"/><rect x="127.33" y="127.33" width="31.83" height="31.83" fill="#20dfdf"/><path d="M 127.33 159.16 A 31.83 31.83 0 0 1 159.16 127.33 L 159.16 135.2875 A 23.8725 23.8725 0 0 0 135.2875 159.16" fill="#183FE1"/><rect x="159.17" y="127.33" width="31.83" height="31.83" fill="#20dfdf"/><path d="M 159.17 127.33 A 31.83 31.83 0 0 1 191 159.16 L 183.0425 159.16 A 23.8725 23.8725 0 0 0 159.17 135.2875" fill="#FF3565"/><rect x="127.33" y="159.17" width="31.83" height="31.83" fill="#20dfdf"/><path d="M 127.33 159.17 A 31.83 31.83 0 0 0 159.16 191 L 159.16 183.0425 A 23.8725 23.8725 0 0 1 135.2875 159.17" fill="#20dfdf"/><rect x="159.17" y="159.17" width="31.83" height="31.83" fill="#183FE1"/><path d="M 159.17 191 A 31.83 31.83 0 0 0 191 159.17 L 183.0425 159.17 A 23.8725 23.8725 0 0 1 159.17 183.0425" fill="#FF3565"/><rect x="191" y="127.33333333333333" width="63.666666666666664" height="63.666666666666664" fill="#ffffff"/><rect x="191" y="127.33" width="31.83" height="31.83" fill="#FF3565"/><path d="M 191 159.16 A 31.83 31.83 0 0 1  222.82999999999998 127.33 L 222.82999999999998 159.16" fill="#183FE1"/><rect x="222.83" y="127.33" width="31.83" height="31.83" fill="#20dfdf"/><path d="M 222.83 127.33 A 31.83 31.83 0 0 1 254.66000000000003 159.16 L 222.83 159.16" fill="#183FE1"/><rect x="191" y="159.17" width="31.83" height="31.83" fill="#20dfdf"/><path d="M 191 159.17 A 31.83 31.83 0 0 0 222.82999999999998 191 L 222.82999999999998 159.17" fill="#FF3565"/><rect x="222.83" y="159.17" width="31.83" height="31.83" fill="#FF3565"/><path d="M 222.83 191 A 31.83 31.83 0 0 0 254.66000000000003 159.17 L 222.83 159.17" fill="#183FE1"/><rect x="254.67" y="127.33" width="63.67" height="63.67" fill="#183FE1"/><path d="M 254.67 127.33 A 63.67 63.67 0 0 1  318.34 191 L 254.67 127.33 A 63.67 63.67 0 0 0 318.34 191" fill="#183FE1"/><rect x="318.3333333333333" y="127.33333333333333" width="63.666666666666664" height="63.666666666666664" fill="#ffffff"/><rect x="318.33" y="127.33" width="31.83" height="31.83" fill="#183FE1"/><path d="M 318.33 159.16 A 31.83 31.83 0 0 1 350.15999999999997 127.33 L 350.15999999999997 135.2875 A 23.8725 23.8725 0 0 0 326.28749999999997 159.16" fill="#20dfdf"/><rect x="350.17" y="127.33" width="31.83" height="31.83" fill="#20dfdf"/><path d="M 350.17 127.33 A 31.83 31.83 0 0 1 382 159.16 L 374.0425 159.16 A 23.8725 23.8725 0 0 0 350.17 135.2875" fill="#FF3565"/><rect x="318.33" y="159.17" width="31.83" height="31.83" fill="#183FE1"/><path d="M 318.33 159.17 A 31.83 31.83 0 0 0 350.15999999999997 191 L 350.15999999999997 183.0425 A 23.8725 23.8725 0 0 1 326.28749999999997 159.17" fill="#183FE1"/><rect x="350.17" y="159.17" width="31.83" height="31.83" fill="#183FE1"/><path d="M 350.17 191 A 31.83 31.83 0 0 0 382 159.17 L 374.0425 159.17 A 23.8725 23.8725 0 0 1 350.17 183.0425" fill="#20dfdf"/><rect x="382" y="127.33" width="63.67" height="63.67" fill="#20dfdf"/><polygon points="445.67,127.33 445.67,191 382,191" fill="#183FE1"/><rect x="445.67" y="127.33" width="63.67" height="63.67" fill="#20dfdf"/><path d="M 445.67 127.33 A 63.67 63.67 0 0 1  509.34000000000003 191 L 445.67 127.33 A 63.67 63.67 0 0 0 509.34000000000003 191" fill="#183FE1"/><rect x="509.33" y="127.33" width="63.67" height="63.67" fill="#FF3565"/><rect x="509.33" y="127.33" width="63.67" height="63.67" fill="#20dfdf"/><rect x="573" y="127.33333333333333" width="63.666666666666664" height="63.666666666666664" fill="#ffffff"/><rect x="573" y="127.33" width="31.83" height="31.83" fill="#FF3565"/><polygon points="604.83,127.33 604.83,159.16 573,159.16" fill="#20dfdf"/><rect x="604.83" y="127.33" width="31.83" height="31.83" fill="#183FE1"/><polygon points="604.83,127.33 636.6600000000001,159.16 604.83,159.16" fill="#183FE1"/><rect x="573" y="159.17" width="31.83" height="31.83" fill="#FF3565"/><polygon points="573,159.17 604.83,159.17 573,191" fill="#FF3565"/><rect x="604.83" y="159.17" width="31.83" height="31.83" fill="#183FE1"/><polygon points="604.83,159.17 636.6600000000001,159.17 636.6600000000001,191" fill="#FF3565"/><rect x="636.6666666666666" y="127.33333333333333" width="63.666666666666664" height="63.666666666666664" fill="#ffffff"/><rect x="636.67" y="127.33" width="31.83" height="31.83" fill="#FF3565"/><polygon points="668.5,127.33 668.5,159.16 636.67,159.16" fill="#FF3565"/><rect x="668.5" y="127.33" width="31.83" height="31.83" fill="#FF3565"/><polygon points="668.5,127.33 700.33,159.16 668.5,159.16" fill="#20dfdf"/><rect x="636.67" y="159.17" width="31.83" height="31.83" fill="#20dfdf"/><polygon points="636.67,159.17 668.5,159.17 668.5,191" fill="#FF3565"/><rect x="668.5" y="159.17" width="31.83" height="31.83" fill="#20dfdf"/><polygon points="668.5,159.17 700.33,159.17 668.5,191" fill="#FF3565"/><rect x="0" y="191" width="63.666666666666664" height="63.666666666666664" fill="#ffffff"/><rect x="0" y="191" width="31.83" height="31.83" fill="#20dfdf"/><path d="M 0 222.82999999999998 A 31.83 31.83 0 0 1 31.83 191 L 31.83 198.9575 A 23.8725 23.8725 0 0 0 7.9575 222.82999999999998" fill="#183FE1"/><rect x="31.83" y="191" width="31.83" height="31.83" fill="#183FE1"/><path d="M 31.83 191 A 31.83 31.83 0 0 1 63.66 222.82999999999998 L 55.7025 222.82999999999998 A 23.8725 23.8725 0 0 0 31.83 198.9575" fill="#20dfdf"/><rect x="0" y="222.83" width="31.83" height="31.83" fill="#20dfdf"/><path d="M 0 222.83 A 31.83 31.83 0 0 0 31.83 254.66000000000003 L 31.83 246.70250000000001 A 23.8725 23.8725 0 0 1 7.9575 222.83" fill="#183FE1"/><rect x="31.83" y="222.83" width="31.83" height="31.83" fill="#183FE1"/><path d="M 31.83 254.66000000000003 A 31.83 31.83 0 0 0 63.66 222.83 L 55.7025 222.83 A 23.8725 23.8725 0 0 1 31.83 246.70250000000001" fill="#183FE1"/><rect x="63.666666666666664" y="191" width="63.666666666666664" height="63.666666666666664" fill="#ffffff"/><rect x="63.67" y="191" width="31.83" height="31.83" fill="#FF3565"/><polygon points="95.5,191 95.5,222.82999999999998 63.67,222.82999999999998" fill="#183FE1"/><rect x="95.5" y="191" width="31.83" height="31.83" fill="#20dfdf"/><polygon points="95.5,191 127.33,222.82999999999998 95.5,222.82999999999998" fill="#FF3565"/><rect x="63.67" y="222.83" width="31.83" height="31.83" fill="#183FE1"/><polygon points="63.67,222.83 95.5,222.83 63.67,254.66000000000003" fill="#20dfdf"/><rect x="95.5" y="222.83" width="31.83" height="31.83" fill="#183FE1"/><polygon points="95.5,222.83 127.33,222.83 127.33,254.66000000000003" fill="#183FE1"/><rect x="127.33" y="191" width="63.67" height="63.67" fill="#FF3565"/><rect x="127.33" y="191" width="63.67" height="63.67" fill="#183FE1"/><rect x="191" y="191" width="63.666666666666664" height="63.666666666666664" fill="#ffffff"/><rect x="191" y="191" width="31.83" height="31.83" fill="#20dfdf"/><polygon points="222.82999999999998,191 222.82999999999998,222.82999999999998 191,222.82999999999998" fill="#183FE1"/><rect x="222.83" y="191" width="31.83" height="31.83" fill="#183FE1"/><polygon points="222.83,191 254.66000000000003,222.82999999999998 222.83,222.82999999999998" fill="#20dfdf"/><rect x="191" y="222.83" width="31.83" height="31.83" fill="#FF3565"/><polygon points="191,222.83 222.82999999999998,222.83 191,254.66000000000003" fill="#20dfdf"/><rect x="222.83" y="222.83" width="31.83" height="31.83" fill="#20dfdf"/><polygon points="222.83,222.83 254.66000000000003,222.83 254.66000000000003,254.66000000000003" fill="#FF3565"/><rect x="254.67" y="191" width="63.67" height="63.67" fill="#183FE1"/><path d="M 254.67 191 A 63.67 63.67 0 0 1 318.34 254.67000000000002 L 254.67 254.67000000000002" fill="#183FE1"/><rect x="318.33" y="191" width="63.67" height="63.67" fill="#FF3565"/><path d="M 318.33 254.67000000000002 A 63.67 63.67 0 0 0 382 191 L 318.33 191" fill="#20dfdf"/><rect x="382" y="191" width="63.67" height="63.67" fill="#FF3565"/><rect x="382" y="191" width="63.67" height="63.67" fill="#FF3565"/><rect x="445.66666666666663" y="191" width="63.666666666666664" height="63.666666666666664" fill="#ffffff"/><rect x="445.67" y="191" width="31.83" height="31.83" fill="#FF3565"/><polygon points="477.5,191 477.5,222.82999999999998 445.67,222.82999999999998" fill="#20dfdf"/><rect x="477.5" y="191" width="31.83" height="31.83" fill="#183FE1"/><polygon points="477.5,191 509.33,191 477.5,222.82999999999998" fill="#20dfdf"/><rect x="445.67" y="222.83" width="31.83" height="31.83" fill="#20dfdf"/><polygon points="445.67,222.83 477.5,222.83 477.5,254.66000000000003" fill="#20dfdf"/><rect x="477.5" y="222.83" width="31.83" height="31.83" fill="#183FE1"/><polygon points="477.5,222.83 509.33,254.66000000000003 477.5,254.66000000000003" fill="#FF3565"/><rect x="509.3333333333333" y="191" width="63.666666666666664" height="63.666666666666664" fill="#ffffff"/><rect x="509.33" y="191" width="31.83" height="31.83" fill="#183FE1"/><path d="M 509.33 222.82999999999998 A 31.83 31.83 0 0 1  541.16 191 L 541.16 222.82999999999998" fill="#20dfdf"/><rect x="541.17" y="191" width="31.83" height="31.83" fill="#20dfdf"/><path d="M 541.17 191 A 31.83 31.83 0 0 1 573 222.82999999999998 L 541.17 222.82999999999998" fill="#FF3565"/><rect x="509.33" y="222.83" width="31.83" height="31.83" fill="#183FE1"/><path d="M 509.33 222.83 A 31.83 31.83 0 0 0 541.16 254.66000000000003 L 541.16 222.83" fill="#20dfdf"/><rect x="541.17" y="222.83" width="31.83" height="31.83" fill="#183FE1"/><path d="M 541.17 254.66000000000003 A 31.83 31.83 0 0 0 573 222.83 L 541.17 222.83" fill="#183FE1"/><rect x="573" y="191" width="63.666666666666664" height="63.666666666666664" fill="#ffffff"/><rect x="573" y="191" width="31.83" height="31.83" fill="#FF3565"/><polygon points="604.83,191 604.83,222.82999999999998 573,222.82999999999998" fill="#FF3565"/><rect x="604.83" y="191" width="31.83" height="31.83" fill="#FF3565"/><polygon points="604.83,191 636.6600000000001,191 604.83,222.82999999999998" fill="#183FE1"/><rect x="573" y="222.83" width="31.83" height="31.83" fill="#FF3565"/><polygon points="573,222.83 604.83,222.83 604.83,254.66000000000003" fill="#183FE1"/><rect x="604.83" y="222.83" width="31.83" height="31.83" fill="#FF3565"/><polygon points="604.83,222.83 636.6600000000001,254.66000000000003 604.83,254.66000000000003" fill="#FF3565"/><rect x="636.6666666666666" y="191" width="63.666666666666664" height="63.666666666666664" fill="#ffffff"/><rect x="636.67" y="191" width="31.83" height="31.83" fill="#183FE1"/><polygon points="668.5,191 668.5,222.82999999999998 636.67,222.82999999999998" fill="#FF3565"/><rect x="668.5" y="191" width="31.83" height="31.83" fill="#20dfdf"/><polygon points="668.5,191 700.33,222.82999999999998 668.5,222.82999999999998" fill="#183FE1"/><rect x="636.67" y="222.83" width="31.83" height="31.83" fill="#FF3565"/><polygon points="636.67,222.83 668.5,222.83 668.5,254.66000000000003" fill="#183FE1"/><rect x="668.5" y="222.83" width="31.83" height="31.83" fill="#183FE1"/><polygon points="668.5,222.83 700.33,222.83 668.5,254.66000000000003" fill="#20dfdf"/><rect x="0" y="254.67" width="63.67" height="63.67" fill="#183FE1"/><rect x="0" y="254.67" width="63.67" height="63.67" fill="#183FE1"/><rect x="63.67" y="254.67" width="63.67" height="63.67" fill="#20dfdf"/><path d="M 63.67 254.67 A 63.67 63.67 0 0 1  127.34 318.34 L 63.67 254.67 A 63.67 63.67 0 0 0 127.34 318.34" fill="#183FE1"/><rect x="127.33333333333333" y="254.66666666666666" width="63.666666666666664" height="63.666666666666664" fill="#ffffff"/><rect x="127.33" y="254.67" width="31.83" height="31.83" fill="#183FE1"/><path d="M 127.33 286.5 A 31.83 31.83 0 0 1 159.16 254.67 L 159.16 262.6275 A 23.8725 23.8725 0 0 0 135.2875 286.5" fill="#20dfdf"/><rect x="159.17" y="254.67" width="31.83" height="31.83" fill="#183FE1"/><path d="M 159.17 254.67 A 31.83 31.83 0 0 1 191 286.5 L 183.0425 286.5 A 23.8725 23.8725 0 0 0 159.17 262.6275" fill="#20dfdf"/><rect x="127.33" y="286.5" width="31.83" height="31.83" fill="#FF3565"/><path d="M 127.33 286.5 A 31.83 31.83 0 0 0 159.16 318.33 L 159.16 310.3725 A 23.8725 23.8725 0 0 1 135.2875 286.5" fill="#20dfdf"/><rect x="159.17" y="286.5" width="31.83" height="31.83" fill="#FF3565"/><path d="M 159.17 318.33 A 31.83 31.83 0 0 0 191 286.5 L 183.0425 286.5 A 23.8725 23.8725 0 0 1 159.17 310.3725" fill="#20dfdf"/><rect x="191" y="254.66666666666666" width="63.666666666666664" height="63.666666666666664" fill="#ffffff"/><rect x="191" y="254.67" width="31.83" height="31.83" fill="#20dfdf"/><polygon points="222.82999999999998,254.67 222.82999999999998,286.5 191,286.5" fill="#183FE1"/><rect x="222.83" y="254.67" width="31.83" height="31.83" fill="#183FE1"/><polygon points="222.83,254.67 254.66000000000003,286.5 222.83,286.5" fill="#FF3565"/><rect x="191" y="286.5" width="31.83" height="31.83" fill="#20dfdf"/><polygon points="191,286.5 222.82999999999998,286.5 191,318.33" fill="#FF3565"/><rect x="222.83" y="286.5" width="31.83" height="31.83" fill="#FF3565"/><polygon points="222.83,286.5 254.66000000000003,286.5 254.66000000000003,318.33" fill="#FF3565"/><rect x="254.66666666666666" y="254.66666666666666" width="63.666666666666664" height="63.666666666666664" fill="#ffffff"/><rect x="254.67" y="254.67" width="31.83" height="31.83" fill="#FF3565"/><path d="M 254.67 286.5 A 31.83 31.83 0 0 1 286.5 254.67 L 286.5 262.6275 A 23.8725 23.8725 0 0 0 262.6275 286.5" fill="#20dfdf"/><rect x="286.5" y="254.67" width="31.83" height="31.83" fill="#20dfdf"/><path d="M 286.5 254.67 A 31.83 31.83 0 0 1 318.33 286.5 L 310.3725 286.5 A 23.8725 23.8725 0 0 0 286.5 262.6275" fill="#183FE1"/><rect x="254.67" y="286.5" width="31.83" height="31.83" fill="#FF3565"/><path d="M 254.67 286.5 A 31.83 31.83 0 0 0 286.5 318.33 L 286.5 310.3725 A 23.8725 23.8725 0 0 1 262.6275 286.5" fill="#FF3565"/><rect x="286.5" y="286.5" width="31.83" height="31.83" fill="#FF3565"/><path d="M 286.5 318.33 A 31.83 31.83 0 0 0 318.33 286.5 L 310.3725 286.5 A 23.8725 23.8725 0 0 1 286.5 310.3725" fill="#FF3565"/><rect x="318.3333333333333" y="254.66666666666666" width="63.666666666666664" height="63.666666666666664" fill="#ffffff"/><rect x="318.33" y="254.67" width="31.83" height="31.83" fill="#FF3565"/><path d="M 318.33 286.5 A 31.83 31.83 0 0 1 350.15999999999997 254.67 L 350.15999999999997 262.6275 A 23.8725 23.8725 0 0 0 326.28749999999997 286.5" fill="#183FE1"/><rect x="350.17" y="254.67" width="31.83" height="31.83" fill="#183FE1"/><path d="M 350.17 254.67 A 31.83 31.83 0 0 1 382 286.5 L 374.0425 286.5 A 23.8725 23.8725 0 0 0 350.17 262.6275" fill="#20dfdf"/><rect x="318.33" y="286.5" width="31.83" height="31.83" fill="#20dfdf"/><path d="M 318.33 286.5 A 31.83 31.83 0 0 0 350.15999999999997 318.33 L 350.15999999999997 310.3725 A 23.8725 23.8725 0 0 1 326.28749999999997 286.5" fill="#20dfdf"/><rect x="350.17" y="286.5" width="31.83" height="31.83" fill="#20dfdf"/><path d="M 350.17 318.33 A 31.83 31.83 0 0 0 382 286.5 L 374.0425 286.5 A 23.8725 23.8725 0 0 1 350.17 310.3725" fill="#20dfdf"/><rect x="382" y="254.67" width="63.67" height="63.67" fill="#183FE1"/><polygon points="445.67,254.67 445.67,318.34 382,318.34" fill="#FF3565"/><rect x="445.66666666666663" y="254.66666666666666" width="63.666666666666664" height="63.666666666666664" fill="#ffffff"/><rect x="445.67" y="254.67" width="31.83" height="31.83" fill="#20dfdf"/><path d="M 445.67 286.5 A 31.83 31.83 0 0 1 477.5 254.67 L 477.5 262.6275 A 23.8725 23.8725 0 0 0 453.6275 286.5" fill="#183FE1"/><rect x="477.5" y="254.67" width="31.83" height="31.83" fill="#20dfdf"/><path d="M 477.5 254.67 A 31.83 31.83 0 0 1 509.33 286.5 L 501.3725 286.5 A 23.8725 23.8725 0 0 0 477.5 262.6275" fill="#FF3565"/><rect x="445.67" y="286.5" width="31.83" height="31.83" fill="#20dfdf"/><path d="M 445.67 286.5 A 31.83 31.83 0 0 0 477.5 318.33 L 477.5 310.3725 A 23.8725 23.8725 0 0 1 453.6275 286.5" fill="#183FE1"/><rect x="477.5" y="286.5" width="31.83" height="31.83" fill="#FF3565"/><path d="M 477.5 318.33 A 31.83 31.83 0 0 0 509.33 286.5 L 501.3725 286.5 A 23.8725 23.8725 0 0 1 477.5 310.3725" fill="#20dfdf"/><rect x="509.33" y="254.67" width="63.67" height="63.67" fill="#183FE1"/><polygon points="509.33,254.67 573,254.67 573,318.34" fill="#183FE1"/><rect x="573" y="254.67" width="63.67" height="63.67" fill="#FF3565"/><polygon points="573,254.67 636.67,254.67 636.67,318.34" fill="#FF3565"/><rect x="636.6666666666666" y="254.66666666666666" width="63.666666666666664" height="63.666666666666664" fill="#ffffff"/><rect x="636.67" y="254.67" width="31.83" height="31.83" fill="#20dfdf"/><path d="M 636.67 254.67 A 31.83 31.83 0 0 1 668.5 286.5 L 636.67 286.5" fill="#20dfdf"/><rect x="668.5" y="254.67" width="31.83" height="31.83" fill="#FF3565"/><path d="M 668.5 286.5 A 31.83 31.83 0 0 1  700.33 254.67 L 700.33 286.5" fill="#FF3565"/><rect x="636.67" y="286.5" width="31.83" height="31.83" fill="#FF3565"/><path d="M 636.67 318.33 A 31.83 31.83 0 0 0 668.5 286.5 L 636.67 286.5" fill="#FF3565"/><rect x="668.5" y="286.5" width="31.83" height="31.83" fill="#20dfdf"/><path d="M 668.5 286.5 A 31.83 31.83 0 0 0 700.33 318.33 L 700.33 286.5" fill="#FF3565"/><rect x="0" y="318.33" width="63.67" height="63.67" fill="#183FE1"/><path d="M 0 318.33 A 63.67 63.67 0 0 1  63.67 382 L 0 318.33 A 63.67 63.67 0 0 0 63.67 382" fill="#FF3565"/><rect x="63.666666666666664" y="318.3333333333333" width="63.666666666666664" height="63.666666666666664" fill="#ffffff"/><rect x="63.67" y="318.33" width="31.83" height="31.83" fill="#FF3565"/><path d="M 63.67 350.15999999999997 A 31.83 31.83 0 0 1 95.5 318.33 L 95.5 326.28749999999997 A 23.8725 23.8725 0 0 0 71.6275 350.15999999999997" fill="#FF3565"/><rect x="95.5" y="318.33" width="31.83" height="31.83" fill="#FF3565"/><path d="M 95.5 318.33 A 31.83 31.83 0 0 1 127.33 350.15999999999997 L 119.3725 350.15999999999997 A 23.8725 23.8725 0 0 0 95.5 326.28749999999997" fill="#183FE1"/><rect x="63.67" y="350.17" width="31.83" height="31.83" fill="#183FE1"/><path d="M 63.67 350.17 A 31.83 31.83 0 0 0 95.5 382 L 95.5 374.0425 A 23.8725 23.8725 0 0 1 71.6275 350.17" fill="#FF3565"/><rect x="95.5" y="350.17" width="31.83" height="31.83" fill="#FF3565"/><path d="M 95.5 382 A 31.83 31.83 0 0 0 127.33 350.17 L 119.3725 350.17 A 23.8725 23.8725 0 0 1 95.5 374.0425" fill="#20dfdf"/><rect x="127.33" y="318.33" width="63.67" height="63.67" fill="#FF3565"/><rect x="127.33" y="318.33" width="63.67" height="63.67" fill="#183FE1"/><rect x="191" y="318.33" width="63.67" height="63.67" fill="#20dfdf"/><polygon points="191,318.33 254.67000000000002,382 191,382" fill="#FF3565"/><rect x="254.66666666666666" y="318.3333333333333" width="63.666666666666664" height="63.666666666666664" fill="#ffffff"/><rect x="254.67" y="318.33" width="31.83" height="31.83" fill="#FF3565"/><path d="M 254.67 318.33 A 31.83 31.83 0 0 0 286.5 350.15999999999997 L 286.5 318.33" fill="#FF3565"/><rect x="286.5" y="318.33" width="31.83" height="31.83" fill="#20dfdf"/><path d="M 286.5 350.15999999999997 A 31.83 31.83 0 0 0 318.33 318.33 L 286.5 318.33" fill="#183FE1"/><rect x="254.67" y="350.17" width="31.83" height="31.83" fill="#FF3565"/><path d="M 254.67 382 A 31.83 31.83 0 0 1  286.5 350.17 L 286.5 382" fill="#20dfdf"/><rect x="286.5" y="350.17" width="31.83" height="31.83" fill="#20dfdf"/><path d="M 286.5 350.17 A 31.83 31.83 0 0 1 318.33 382 L 286.5 382" fill="#20dfdf"/><rect x="318.33" y="318.33" width="63.67" height="63.67" fill="#183FE1"/><path d="M 318.33 318.33 A 63.67 63.67 0 0 1  382 382 L 318.33 318.33 A 63.67 63.67 0 0 0 382 382" fill="#20dfdf"/><rect x="382" y="318.3333333333333" width="63.666666666666664" height="63.666666666666664" fill="#ffffff"/><rect x="382" y="318.33" width="31.83" height="31.83" fill="#183FE1"/><path d="M 382 350.15999999999997 A 31.83 31.83 0 0 1 413.83 318.33 L 413.83 326.28749999999997 A 23.8725 23.8725 0 0 0 389.9575 350.15999999999997" fill="#183FE1"/><rect x="413.83" y="318.33" width="31.83" height="31.83" fill="#FF3565"/><path d="M 413.83 318.33 A 31.83 31.83 0 0 1 445.65999999999997 350.15999999999997 L 437.7025 350.15999999999997 A 23.8725 23.8725 0 0 0 413.83 326.28749999999997" fill="#183FE1"/><rect x="382" y="350.17" width="31.83" height="31.83" fill="#183FE1"/><path d="M 382 350.17 A 31.83 31.83 0 0 0 413.83 382 L 413.83 374.0425 A 23.8725 23.8725 0 0 1 389.9575 350.17" fill="#FF3565"/><rect x="413.83" y="350.17" width="31.83" height="31.83" fill="#FF3565"/><path d="M 413.83 382 A 31.83 31.83 0 0 0 445.65999999999997 350.17 L 437.7025 350.17 A 23.8725 23.8725 0 0 1 413.83 374.0425" fill="#FF3565"/><rect x="445.67" y="318.33" width="63.67" height="63.67" fill="#183FE1"/><path d="M 445.67 382 A 63.67 63.67 0 0 1  509.34000000000003 318.33 L 445.67 382 A 63.67 63.67 0 0 0 509.34000000000003 318.33" fill="#20dfdf"/><rect x="509.33" y="318.33" width="63.67" height="63.67" fill="#FF3565"/><path d="M 509.33 318.33 A 63.67 63.67 0 0 0 573 382 L 573 318.33" fill="#FF3565"/><rect x="573" y="318.33" width="63.67" height="63.67" fill="#183FE1"/><rect x="573" y="318.33" width="63.67" height="63.67" fill="#183FE1"/><rect x="636.6666666666666" y="318.3333333333333" width="63.666666666666664" height="63.666666666666664" fill="#ffffff"/><rect x="636.67" y="318.33" width="31.83" height="31.83" fill="#20dfdf"/><polygon points="668.5,318.33 668.5,350.15999999999997 636.67,350.15999999999997" fill="#183FE1"/><rect x="668.5" y="318.33" width="31.83" height="31.83" fill="#183FE1"/><polygon points="668.5,318.33 700.33,350.15999999999997 668.5,350.15999999999997" fill="#183FE1"/><rect x="636.67" y="350.17" width="31.83" height="31.83" fill="#20dfdf"/><polygon points="636.67,350.17 668.5,350.17 636.67,382" fill="#FF3565"/><rect x="668.5" y="350.17" width="31.83" height="31.83" fill="#183FE1"/><polygon points="668.5,350.17 700.33,350.17 700.33,382" fill="#FF3565"/></g></svg>